<?xml version="1.0" standalone="no"?>
<!DOCTYPE svg PUBLIC "-//W3C//DTD SVG 20010904//EN"
 "http://www.w3.org/TR/2001/REC-SVG-20010904/DTD/svg10.dtd">
<svg version="1.0" xmlns="http://www.w3.org/2000/svg"
 width="32.000000pt" height="32.000000pt" viewBox="0 0 32.000000 32.000000"
 preserveAspectRatio="xMidYMid meet">

<g transform="translate(0.000000,32.000000) scale(0.100000,-0.100000)"
fill="#000000" stroke="none">
<path d="M32 288 c-17 -17 -17 -239 0 -256 7 -7 40 -12 80 -12 l68 0 -12 25
c-7 16 -19 25 -35 25 -12 0 -23 5 -23 10 0 6 9 10 20 10 12 0 24 9 29 23 13
32 37 50 71 51 24 1 30 5 30 24 0 19 -5 22 -40 22 l-40 0 0 45 0 45 -68 0
c-40 0 -73 -5 -80 -12z m58 -64 c0 -33 -33 -30 -38 4 -3 17 2 22 17 22 16 0
21 -6 21 -26z m60 16 c0 -5 -9 -10 -20 -10 -11 0 -20 5 -20 10 0 6 9 10 20 10
11 0 20 -4 20 -10z m3 -27 c-7 -2 -21 -2 -30 0 -10 3 -4 5 12 5 17 0 24 -2 18
-5z m-63 -53 c0 -13 -7 -20 -20 -20 -13 0 -20 7 -20 20 0 13 7 20 20 20 13 0
20 -7 20 -20z m53 13 c-7 -2 -19 -2 -25 0 -7 3 -2 5 12 5 14 0 19 -2 13 -5z
m10 -30 c-7 -2 -21 -2 -30 0 -10 3 -4 5 12 5 17 0 24 -2 18 -5z m-63 -48 c0
-18 -5 -25 -20 -25 -20 0 -28 28 -13 43 15 16 33 6 33 -18z m53 8 c-7 -2 -19
-2 -25 0 -7 3 -2 5 12 5 14 0 19 -2 13 -5z"/>
<path d="M60 230 c0 -5 5 -10 10 -10 6 0 10 5 10 10 0 6 -4 10 -10 10 -5 0
-10 -4 -10 -10z"/>
<path d="M60 160 c0 -5 5 -10 10 -10 6 0 10 5 10 10 0 6 -4 10 -10 10 -5 0
-10 -4 -10 -10z"/>
<path d="M60 90 c0 -5 5 -10 10 -10 6 0 10 5 10 10 0 6 -4 10 -10 10 -5 0 -10
-4 -10 -10z"/>
<path d="M190 255 c0 -34 1 -35 37 -35 l37 0 -34 35 c-19 19 -35 35 -37 35 -2
0 -3 -16 -3 -35z"/>
<path d="M187 132 c-36 -40 -6 -112 46 -112 29 0 67 39 67 68 0 52 -79 82
-113 44z m83 -25 c0 -2 -11 -13 -23 -26 -23 -20 -25 -21 -38 -4 -12 15 -12 16
3 10 9 -3 22 1 28 9 11 12 30 19 30 11z"/>
</g>
</svg>
