<svg width="16" height="16" viewBox="0 0 16 16" fill="none" xmlns="http://www.w3.org/2000/svg">
    <g clip-path="url(#mk59gkhzla)">
        <path d="M12.666 14.667H3.333a2 2 0 0 1-2-2V2A.667.667 0 0 1 2 1.333h9.333A.667.667 0 0 1 12 2v4.667h2.666v6a2 2 0 0 1-2 2zM12 8v4.667a.667.667 0 0 0 1.333 0V8H12zM3.333 4v4h4V4h-4zm0 4.667V10H10V8.667H3.333zm0 2V12H10v-1.333H3.333zm1.333-5.334H6v1.334H4.666V5.333z" fill="#fff"/>
    </g>
    <defs>
        <clipPath id="mk59gkhzla">
            <path fill="#fff" d="M0 0h16v16H0z"/>
        </clipPath>
    </defs>
</svg>
