<svg width="14" height="14" viewBox="0 0 14 14" fill="none" xmlns="http://www.w3.org/2000/svg">
    <path d="M14 6.987c.007 3.857-3.138 7.01-6.995 7.013a6.97 6.97 0 0 1-4.398-1.55.677.677 0 0 1-.052-1.005l.318-.318a.679.679 0 0 1 .9-.056A5.172 5.172 0 0 0 7 12.194 5.19 5.19 0 0 0 12.194 7 5.19 5.19 0 0 0 7 1.806c-1.378 0-2.63.536-3.558 1.41l1.432 1.432a.452.452 0 0 1-.32.771H.453A.452.452 0 0 1 0 4.968V.864C0 .462.486.261.771.545L2.165 1.94A7 7 0 0 1 14 6.987zM8.894 9.21l.277-.357a.677.677 0 0 0-.119-.95L7.903 7.01V4.065a.677.677 0 0 0-.677-.678h-.452a.677.677 0 0 0-.677.678v3.828L7.943 9.33c.295.23.72.177.95-.118z" fill="#333"/>
</svg>
