<svg width="16" height="16" viewBox="0 0 16 16" fill="none" xmlns="http://www.w3.org/2000/svg">
    <g clip-path="url(#b8dqs270oa)">
        <path d="m8 0 6.391 1.328a.787.787 0 0 1 .438.255c.11.129.171.29.171.455V9.3c0 .718-.19 1.426-.552 2.059a4.484 4.484 0 0 1-1.526 1.572L8 16l-4.922-3.068a4.484 4.484 0 0 1-1.526-1.572A4.14 4.14 0 0 1 1 9.302V2.038c0-.166.06-.326.171-.455a.787.787 0 0 1 .438-.255L8 0zm0 4.364c-.342 0-.675.105-.947.3a1.453 1.453 0 0 0-.555.778c-.09.309-.066.637.065.933.13.296.363.543.66.703v3.104h1.555V7.078a1.49 1.49 0 0 0 .66-.703c.131-.296.154-.624.065-.934a1.453 1.453 0 0 0-.556-.777 1.627 1.627 0 0 0-.947-.3z" fill="#fff"/>
    </g>
    <defs>
        <clipPath id="b8dqs270oa">
            <path fill="#fff" d="M0 0h16v16H0z"/>
        </clipPath>
    </defs>
</svg>
