<svg width="120" height="120" viewBox="0 0 120 120" fill="none" xmlns="http://www.w3.org/2000/svg">
    <g clip-path="url(#owpi6c2wza)">
        <path d="M70 15v90H15a5.002 5.002 0 0 1-5-5V72.5a12.5 12.5 0 0 0 0-25V20a5 5 0 0 1 5-5h55zm10 0h25a5.002 5.002 0 0 1 5 5v27.5a12.5 12.5 0 0 0 0 25V100a5.004 5.004 0 0 1-1.464 3.536A5.004 5.004 0 0 1 105 105H80V15z" fill="#fff"/>
    </g>
    <defs>
        <clipPath id="owpi6c2wza">
            <path fill="#fff" d="M0 0h120v120H0z"/>
        </clipPath>
    </defs>
</svg>
